<mxfile host="Electron" agent="Mozilla/5.0 (X11; Linux x86_64) AppleWebKit/537.36 (KHTML, like Gecko) draw.io/26.0.9 Chrome/128.0.6613.186 Electron/32.3.1 Safari/537.36" version="26.0.9">
  <diagram id="C5RBs43oDa-KdzZeNtuy" name="Page-1">
    <mxGraphModel dx="1502" dy="697" grid="1" gridSize="10" guides="1" tooltips="1" connect="1" arrows="1" fold="1" page="1" pageScale="1" pageWidth="827" pageHeight="1169" math="0" shadow="0">
      <root>
        <mxCell id="WIyWlLk6GJQsqaUBKTNV-0" />
        <mxCell id="WIyWlLk6GJQsqaUBKTNV-1" parent="WIyWlLk6GJQsqaUBKTNV-0" />
        <mxCell id="WIyWlLk6GJQsqaUBKTNV-3" value="Angular Front End" style="rounded=1;whiteSpace=wrap;html=1;fontSize=12;glass=0;strokeWidth=1;shadow=0;" parent="WIyWlLk6GJQsqaUBKTNV-1" vertex="1">
          <mxGeometry x="564" y="360" width="120" height="48" as="geometry" />
        </mxCell>
        <mxCell id="bPGGBDs2hyxYSaGKEc5m-0" value="Keycloak authorizaton server" style="rounded=1;whiteSpace=wrap;html=1;" parent="WIyWlLk6GJQsqaUBKTNV-1" vertex="1">
          <mxGeometry x="564" y="150" width="120" height="47" as="geometry" />
        </mxCell>
        <mxCell id="bPGGBDs2hyxYSaGKEc5m-3" value="Transaction Service" style="rounded=1;whiteSpace=wrap;html=1;" parent="WIyWlLk6GJQsqaUBKTNV-1" vertex="1">
          <mxGeometry x="150" y="780" width="120" height="57" as="geometry" />
        </mxCell>
        <mxCell id="bPGGBDs2hyxYSaGKEc5m-4" value="Budget Service" style="rounded=1;whiteSpace=wrap;html=1;" parent="WIyWlLk6GJQsqaUBKTNV-1" vertex="1">
          <mxGeometry x="564" y="780" width="120" height="57" as="geometry" />
        </mxCell>
        <mxCell id="bPGGBDs2hyxYSaGKEc5m-5" value="Analytics Service" style="rounded=1;whiteSpace=wrap;html=1;" parent="WIyWlLk6GJQsqaUBKTNV-1" vertex="1">
          <mxGeometry x="1090" y="780" width="120" height="57" as="geometry" />
        </mxCell>
        <mxCell id="bPGGBDs2hyxYSaGKEc5m-6" value="" style="endArrow=classic;startArrow=classic;html=1;rounded=0;exitX=0.5;exitY=1;exitDx=0;exitDy=0;entryX=0.5;entryY=0;entryDx=0;entryDy=0;" parent="WIyWlLk6GJQsqaUBKTNV-1" source="bPGGBDs2hyxYSaGKEc5m-0" target="WIyWlLk6GJQsqaUBKTNV-3" edge="1">
          <mxGeometry width="50" height="50" relative="1" as="geometry">
            <mxPoint x="624" y="240" as="sourcePoint" />
            <mxPoint x="624" y="260.71067811865476" as="targetPoint" />
          </mxGeometry>
        </mxCell>
        <mxCell id="bPGGBDs2hyxYSaGKEc5m-8" value="" style="endArrow=classic;startArrow=classic;html=1;rounded=0;exitX=0.5;exitY=0;exitDx=0;exitDy=0;entryX=0;entryY=0.5;entryDx=0;entryDy=0;" parent="WIyWlLk6GJQsqaUBKTNV-1" source="bPGGBDs2hyxYSaGKEc5m-3" target="bPGGBDs2hyxYSaGKEc5m-0" edge="1">
          <mxGeometry width="50" height="50" relative="1" as="geometry">
            <mxPoint x="300" y="410" as="sourcePoint" />
            <mxPoint x="370" y="170" as="targetPoint" />
            <Array as="points">
              <mxPoint x="210" y="174" />
            </Array>
          </mxGeometry>
        </mxCell>
        <mxCell id="bPGGBDs2hyxYSaGKEc5m-9" value="" style="endArrow=classic;startArrow=classic;html=1;rounded=0;exitX=1;exitY=0.5;exitDx=0;exitDy=0;entryX=1;entryY=0.5;entryDx=0;entryDy=0;" parent="WIyWlLk6GJQsqaUBKTNV-1" source="bPGGBDs2hyxYSaGKEc5m-4" target="bPGGBDs2hyxYSaGKEc5m-0" edge="1">
          <mxGeometry width="50" height="50" relative="1" as="geometry">
            <mxPoint x="740" y="400" as="sourcePoint" />
            <mxPoint x="790" y="350" as="targetPoint" />
            <Array as="points">
              <mxPoint x="744" y="809" />
              <mxPoint x="744" y="174" />
            </Array>
          </mxGeometry>
        </mxCell>
        <mxCell id="bPGGBDs2hyxYSaGKEc5m-10" value="" style="endArrow=classic;startArrow=classic;html=1;rounded=0;entryX=0.5;entryY=0;entryDx=0;entryDy=0;exitX=0.75;exitY=0;exitDx=0;exitDy=0;" parent="WIyWlLk6GJQsqaUBKTNV-1" source="bPGGBDs2hyxYSaGKEc5m-5" edge="1">
          <mxGeometry width="50" height="50" relative="1" as="geometry">
            <mxPoint x="1046" y="780" as="sourcePoint" />
            <mxPoint x="650" y="150" as="targetPoint" />
            <Array as="points">
              <mxPoint x="1180" y="110" />
              <mxPoint x="650" y="110" />
            </Array>
          </mxGeometry>
        </mxCell>
        <mxCell id="bPGGBDs2hyxYSaGKEc5m-11" value="API Gateway" style="rounded=1;whiteSpace=wrap;html=1;" parent="WIyWlLk6GJQsqaUBKTNV-1" vertex="1">
          <mxGeometry x="564" y="570" width="120" height="60" as="geometry" />
        </mxCell>
        <mxCell id="bPGGBDs2hyxYSaGKEc5m-12" value="" style="endArrow=classic;startArrow=classic;html=1;rounded=0;entryX=0.5;entryY=1;entryDx=0;entryDy=0;exitX=0.5;exitY=0;exitDx=0;exitDy=0;" parent="WIyWlLk6GJQsqaUBKTNV-1" source="bPGGBDs2hyxYSaGKEc5m-11" target="WIyWlLk6GJQsqaUBKTNV-3" edge="1">
          <mxGeometry width="50" height="50" relative="1" as="geometry">
            <mxPoint x="620" y="850" as="sourcePoint" />
            <mxPoint x="670" y="820" as="targetPoint" />
          </mxGeometry>
        </mxCell>
        <mxCell id="bPGGBDs2hyxYSaGKEc5m-13" value="" style="endArrow=classic;startArrow=classic;html=1;rounded=0;entryX=0.75;entryY=0;entryDx=0;entryDy=0;exitX=0;exitY=0.5;exitDx=0;exitDy=0;exitPerimeter=0;movable=1;resizable=1;rotatable=1;deletable=1;editable=1;locked=0;connectable=1;" parent="WIyWlLk6GJQsqaUBKTNV-1" source="k2pTh9j2SjfZUudMl6U4-15" target="bPGGBDs2hyxYSaGKEc5m-3" edge="1">
          <mxGeometry width="50" height="50" relative="1" as="geometry">
            <mxPoint x="592" y="693.8" as="sourcePoint" />
            <mxPoint x="235.44000000000005" y="779.9969999999998" as="targetPoint" />
            <Array as="points">
              <mxPoint x="240" y="694" />
            </Array>
          </mxGeometry>
        </mxCell>
        <mxCell id="bPGGBDs2hyxYSaGKEc5m-14" value="" style="endArrow=classic;startArrow=classic;html=1;rounded=0;exitX=0.5;exitY=1;exitDx=0;exitDy=0;entryX=0.5;entryY=0;entryDx=0;entryDy=0;exitPerimeter=0;" parent="WIyWlLk6GJQsqaUBKTNV-1" source="k2pTh9j2SjfZUudMl6U4-15" target="bPGGBDs2hyxYSaGKEc5m-4" edge="1">
          <mxGeometry width="50" height="50" relative="1" as="geometry">
            <mxPoint x="624" y="630" as="sourcePoint" />
            <mxPoint x="760" y="770" as="targetPoint" />
          </mxGeometry>
        </mxCell>
        <mxCell id="bPGGBDs2hyxYSaGKEc5m-15" value="" style="endArrow=classic;startArrow=classic;html=1;rounded=0;entryX=0.25;entryY=0;entryDx=0;entryDy=0;movable=1;resizable=1;rotatable=1;deletable=1;editable=1;locked=0;connectable=1;exitX=1;exitY=0.5;exitDx=0;exitDy=0;exitPerimeter=0;" parent="WIyWlLk6GJQsqaUBKTNV-1" source="k2pTh9j2SjfZUudMl6U4-15" target="bPGGBDs2hyxYSaGKEc5m-5" edge="1">
          <mxGeometry width="50" height="50" relative="1" as="geometry">
            <mxPoint x="660" y="700" as="sourcePoint" />
            <mxPoint x="510" y="780" as="targetPoint" />
            <Array as="points">
              <mxPoint x="1120" y="700" />
            </Array>
          </mxGeometry>
        </mxCell>
        <UserObject label="validate token" placeholders="1" name="Variable" id="bPGGBDs2hyxYSaGKEc5m-23">
          <mxCell style="text;html=1;strokeColor=none;fillColor=none;align=center;verticalAlign=middle;whiteSpace=wrap;overflow=hidden;rotation=-90;" parent="WIyWlLk6GJQsqaUBKTNV-1" vertex="1">
            <mxGeometry x="150" y="470" width="80" height="30" as="geometry" />
          </mxCell>
        </UserObject>
        <UserObject label="validate token" placeholders="1" name="Variable" id="bPGGBDs2hyxYSaGKEc5m-24">
          <mxCell style="text;html=1;strokeColor=none;fillColor=none;align=center;verticalAlign=middle;whiteSpace=wrap;overflow=hidden;rotation=-90;" parent="WIyWlLk6GJQsqaUBKTNV-1" vertex="1">
            <mxGeometry x="684" y="470" width="80" height="30" as="geometry" />
          </mxCell>
        </UserObject>
        <UserObject label="validate token" placeholders="1" name="Variable" id="bPGGBDs2hyxYSaGKEc5m-25">
          <mxCell style="text;html=1;strokeColor=none;fillColor=none;align=center;verticalAlign=middle;whiteSpace=wrap;overflow=hidden;rotation=-90;" parent="WIyWlLk6GJQsqaUBKTNV-1" vertex="1">
            <mxGeometry x="1120" y="470" width="80" height="30" as="geometry" />
          </mxCell>
        </UserObject>
        <UserObject label="API call along with token" placeholders="1" name="Variable" id="bPGGBDs2hyxYSaGKEc5m-27">
          <mxCell style="text;html=1;strokeColor=none;fillColor=none;align=center;verticalAlign=middle;whiteSpace=wrap;overflow=hidden;rotation=-90;" parent="WIyWlLk6GJQsqaUBKTNV-1" vertex="1">
            <mxGeometry x="564" y="470" width="80" height="30" as="geometry" />
          </mxCell>
        </UserObject>
        <UserObject label="User Login and fetch token" placeholders="1" name="Variable" id="bPGGBDs2hyxYSaGKEc5m-28">
          <mxCell style="text;html=1;strokeColor=none;fillColor=none;align=center;verticalAlign=middle;whiteSpace=wrap;overflow=hidden;rotation=-90;" parent="WIyWlLk6GJQsqaUBKTNV-1" vertex="1">
            <mxGeometry x="560" y="250" width="80" height="60" as="geometry" />
          </mxCell>
        </UserObject>
        <mxCell id="bPGGBDs2hyxYSaGKEc5m-30" value="" style="endArrow=classic;html=1;rounded=0;exitX=0.75;exitY=1;exitDx=0;exitDy=0;entryX=0.75;entryY=0;entryDx=0;entryDy=0;" parent="WIyWlLk6GJQsqaUBKTNV-1" source="bPGGBDs2hyxYSaGKEc5m-4" target="k2pTh9j2SjfZUudMl6U4-7" edge="1">
          <mxGeometry width="50" height="50" relative="1" as="geometry">
            <mxPoint x="650" y="837" as="sourcePoint" />
            <mxPoint x="660.75" y="1210" as="targetPoint" />
          </mxGeometry>
        </mxCell>
        <mxCell id="bPGGBDs2hyxYSaGKEc5m-31" value="" style="endArrow=classic;html=1;rounded=0;entryX=0.25;entryY=1;entryDx=0;entryDy=0;exitX=0.25;exitY=0;exitDx=0;exitDy=0;" parent="WIyWlLk6GJQsqaUBKTNV-1" source="k2pTh9j2SjfZUudMl6U4-7" target="bPGGBDs2hyxYSaGKEc5m-4" edge="1">
          <mxGeometry width="50" height="50" relative="1" as="geometry">
            <mxPoint x="587.25" y="1210" as="sourcePoint" />
            <mxPoint x="760" y="900" as="targetPoint" />
          </mxGeometry>
        </mxCell>
        <mxCell id="bPGGBDs2hyxYSaGKEc5m-32" value="" style="endArrow=classic;html=1;rounded=0;entryX=0;entryY=0.5;entryDx=0;entryDy=0;exitX=0.75;exitY=1;exitDx=0;exitDy=0;" parent="WIyWlLk6GJQsqaUBKTNV-1" source="bPGGBDs2hyxYSaGKEc5m-3" target="k2pTh9j2SjfZUudMl6U4-7" edge="1">
          <mxGeometry width="50" height="50" relative="1" as="geometry">
            <mxPoint x="237" y="837" as="sourcePoint" />
            <mxPoint x="591" y="1230" as="targetPoint" />
            <Array as="points">
              <mxPoint x="240" y="1230" />
            </Array>
          </mxGeometry>
        </mxCell>
        <mxCell id="bPGGBDs2hyxYSaGKEc5m-33" value="Notification Service" style="rounded=1;whiteSpace=wrap;html=1;" parent="WIyWlLk6GJQsqaUBKTNV-1" vertex="1">
          <mxGeometry x="1290" y="780" width="120" height="57" as="geometry" />
        </mxCell>
        <mxCell id="bPGGBDs2hyxYSaGKEc5m-34" value="" style="endArrow=classic;html=1;rounded=0;exitX=1;exitY=0.5;exitDx=0;exitDy=0;entryX=0.25;entryY=1;entryDx=0;entryDy=0;" parent="WIyWlLk6GJQsqaUBKTNV-1" source="k2pTh9j2SjfZUudMl6U4-7" target="bPGGBDs2hyxYSaGKEc5m-33" edge="1">
          <mxGeometry width="50" height="50" relative="1" as="geometry">
            <mxPoint x="650" y="1230" as="sourcePoint" />
            <mxPoint x="1316" y="838.5" as="targetPoint" />
            <Array as="points">
              <mxPoint x="1320" y="1230" />
            </Array>
          </mxGeometry>
        </mxCell>
        <mxCell id="bPGGBDs2hyxYSaGKEc5m-35" value="" style="endArrow=classic;html=1;rounded=0;exitX=0.5;exitY=0;exitDx=0;exitDy=0;movable=1;resizable=1;rotatable=1;deletable=1;editable=1;locked=0;connectable=1;entryX=1;entryY=0.5;entryDx=0;entryDy=0;entryPerimeter=0;" parent="WIyWlLk6GJQsqaUBKTNV-1" source="bPGGBDs2hyxYSaGKEc5m-33" target="k2pTh9j2SjfZUudMl6U4-15" edge="1">
          <mxGeometry width="50" height="50" relative="1" as="geometry">
            <mxPoint x="1350" y="768.5" as="sourcePoint" />
            <mxPoint x="660" y="700" as="targetPoint" />
            <Array as="points">
              <mxPoint x="1350" y="700" />
            </Array>
          </mxGeometry>
        </mxCell>
        <UserObject label="produce data to transaction&amp;nbsp;&lt;span style=&quot;background-color: transparent; color: light-dark(rgb(0, 0, 0), rgb(255, 255, 255));&quot;&gt;topic&lt;/span&gt;" placeholders="1" name="Variable" id="k2pTh9j2SjfZUudMl6U4-0">
          <mxCell style="text;html=1;strokeColor=none;fillColor=none;align=center;verticalAlign=middle;whiteSpace=wrap;overflow=hidden;rotation=0;" vertex="1" parent="WIyWlLk6GJQsqaUBKTNV-1">
            <mxGeometry x="300" y="1200" width="230" height="30" as="geometry" />
          </mxCell>
        </UserObject>
        <UserObject label="consume from budget alert topic" placeholders="1" name="Variable" id="k2pTh9j2SjfZUudMl6U4-1">
          <mxCell style="text;html=1;strokeColor=none;fillColor=none;align=center;verticalAlign=middle;whiteSpace=wrap;overflow=hidden;rotation=0;" vertex="1" parent="WIyWlLk6GJQsqaUBKTNV-1">
            <mxGeometry x="810" y="1200" width="220" height="30" as="geometry" />
          </mxCell>
        </UserObject>
        <UserObject label="consume data from transaction&amp;nbsp;&lt;span style=&quot;background-color: transparent; color: light-dark(rgb(0, 0, 0), rgb(255, 255, 255));&quot;&gt;topic&lt;/span&gt;" placeholders="1" name="Variable" id="k2pTh9j2SjfZUudMl6U4-3">
          <mxCell style="text;html=1;strokeColor=none;fillColor=none;align=center;verticalAlign=middle;whiteSpace=wrap;overflow=hidden;rotation=-90;" vertex="1" parent="WIyWlLk6GJQsqaUBKTNV-1">
            <mxGeometry x="460" y="1010" width="230" height="30" as="geometry" />
          </mxCell>
        </UserObject>
        <UserObject label="produce to budget alert topic" placeholders="1" name="Variable" id="k2pTh9j2SjfZUudMl6U4-5">
          <mxCell style="text;html=1;strokeColor=none;fillColor=none;align=center;verticalAlign=middle;whiteSpace=wrap;overflow=hidden;rotation=90;" vertex="1" parent="WIyWlLk6GJQsqaUBKTNV-1">
            <mxGeometry x="564" y="1010" width="220" height="30" as="geometry" />
          </mxCell>
        </UserObject>
        <mxCell id="k2pTh9j2SjfZUudMl6U4-7" value="Kafka MQ" style="rounded=0;whiteSpace=wrap;html=1;" vertex="1" parent="WIyWlLk6GJQsqaUBKTNV-1">
          <mxGeometry x="564" y="1200" width="120" height="60" as="geometry" />
        </mxCell>
        <mxCell id="k2pTh9j2SjfZUudMl6U4-8" value="Transaction database" style="strokeWidth=2;html=1;shape=mxgraph.flowchart.database;whiteSpace=wrap;" vertex="1" parent="WIyWlLk6GJQsqaUBKTNV-1">
          <mxGeometry x="140" y="1360" width="90" height="80" as="geometry" />
        </mxCell>
        <mxCell id="k2pTh9j2SjfZUudMl6U4-10" value="" style="endArrow=classic;startArrow=classic;html=1;rounded=0;entryX=0.25;entryY=1;entryDx=0;entryDy=0;exitX=0.5;exitY=0;exitDx=0;exitDy=0;exitPerimeter=0;" edge="1" parent="WIyWlLk6GJQsqaUBKTNV-1" source="k2pTh9j2SjfZUudMl6U4-8" target="bPGGBDs2hyxYSaGKEc5m-3">
          <mxGeometry width="50" height="50" relative="1" as="geometry">
            <mxPoint x="140" y="1120" as="sourcePoint" />
            <mxPoint x="190" y="1070" as="targetPoint" />
          </mxGeometry>
        </mxCell>
        <mxCell id="k2pTh9j2SjfZUudMl6U4-11" value="" style="endArrow=classic;startArrow=classic;html=1;rounded=0;entryX=1;entryY=0.75;entryDx=0;entryDy=0;exitX=1;exitY=0.5;exitDx=0;exitDy=0;exitPerimeter=0;" edge="1" parent="WIyWlLk6GJQsqaUBKTNV-1" source="k2pTh9j2SjfZUudMl6U4-12" target="bPGGBDs2hyxYSaGKEc5m-4">
          <mxGeometry width="50" height="50" relative="1" as="geometry">
            <mxPoint x="654" y="1400" as="sourcePoint" />
            <mxPoint x="730" y="860" as="targetPoint" />
            <Array as="points">
              <mxPoint x="750" y="1400" />
              <mxPoint x="750" y="823" />
            </Array>
          </mxGeometry>
        </mxCell>
        <mxCell id="k2pTh9j2SjfZUudMl6U4-12" value="Budget database" style="strokeWidth=2;html=1;shape=mxgraph.flowchart.database;whiteSpace=wrap;" vertex="1" parent="WIyWlLk6GJQsqaUBKTNV-1">
          <mxGeometry x="580" y="1360" width="90" height="80" as="geometry" />
        </mxCell>
        <UserObject label="Transaction query" placeholders="1" name="Variable" id="k2pTh9j2SjfZUudMl6U4-13">
          <mxCell style="text;html=1;strokeColor=none;fillColor=none;align=center;verticalAlign=middle;whiteSpace=wrap;overflow=hidden;rotation=-90;" vertex="1" parent="WIyWlLk6GJQsqaUBKTNV-1">
            <mxGeometry x="50" y="1060" width="230" height="30" as="geometry" />
          </mxCell>
        </UserObject>
        <UserObject label="Budget query" placeholders="1" name="Variable" id="k2pTh9j2SjfZUudMl6U4-14">
          <mxCell style="text;html=1;strokeColor=none;fillColor=none;align=center;verticalAlign=middle;whiteSpace=wrap;overflow=hidden;rotation=90;" vertex="1" parent="WIyWlLk6GJQsqaUBKTNV-1">
            <mxGeometry x="650" y="1060" width="230" height="30" as="geometry" />
          </mxCell>
        </UserObject>
        <mxCell id="k2pTh9j2SjfZUudMl6U4-15" value="" style="verticalLabelPosition=bottom;verticalAlign=top;html=1;shape=mxgraph.flowchart.or;" vertex="1" parent="WIyWlLk6GJQsqaUBKTNV-1">
          <mxGeometry x="589" y="660" width="70" height="70" as="geometry" />
        </mxCell>
        <mxCell id="k2pTh9j2SjfZUudMl6U4-17" value="" style="endArrow=classic;startArrow=classic;html=1;rounded=0;entryX=0.5;entryY=0;entryDx=0;entryDy=0;entryPerimeter=0;exitX=0.5;exitY=1;exitDx=0;exitDy=0;" edge="1" parent="WIyWlLk6GJQsqaUBKTNV-1" source="bPGGBDs2hyxYSaGKEc5m-11" target="k2pTh9j2SjfZUudMl6U4-15">
          <mxGeometry width="50" height="50" relative="1" as="geometry">
            <mxPoint x="624" y="630" as="sourcePoint" />
            <mxPoint x="624.5" y="680" as="targetPoint" />
          </mxGeometry>
        </mxCell>
      </root>
    </mxGraphModel>
  </diagram>
</mxfile>
